<svg xmlns="http://www.w3.org/2000/svg" version="1.1" xmlns:xlink="http://www.w3.org/1999/xlink" xmlns:svgjs="http://svgjs.com/svgjs" width="1440" height="560" preserveAspectRatio="none" viewBox="0 0 1440 560"><g mask="url(&quot;#SvgjsMask1266&quot;)" fill="none"><rect width="1440" height="560" x="0" y="0" fill="url(#SvgjsLinearGradient1267)"></rect><path d="M144.67 653.5C359.04 628.86 490.42 154.32 848.03 153.24 1205.65 152.16 1365.57 390.74 1551.4 394.04" stroke="rgba(232, 149, 19, 0.45)" stroke-width="2"></path><path d="M589.04 628.15C742.57 598.97 817 211.03 1053.86 210.17 1290.71 209.31 1388.6 438.8 1518.67 445.37" stroke="rgba(232, 149, 19, 0.45)" stroke-width="2"></path><path d="M498.48 639.16C635.34 608.56 683.72 253.22 899.85 247.3 1115.99 241.38 1100.54 317.3 1301.23 317.3 1501.91 317.3 1600.74 247.56 1702.6 247.3" stroke="rgba(232, 149, 19, 0.45)" stroke-width="2"></path><path d="M594.69 586.14C728.71 515.61 658.33 75.99 912.41 70.36 1166.49 64.73 1383.89 231.48 1547.85 232.76" stroke="rgba(232, 149, 19, 0.45)" stroke-width="2"></path><path d="M564.35 572.57C683.45 525.03 602.78 180.78 868.94 159.84 1135.11 138.9 1321.87 20.74 1478.13 19.84" stroke="rgba(232, 149, 19, 0.45)" stroke-width="2"></path></g><defs><mask id="SvgjsMask1266"><rect width="1440" height="560" fill="#ffffff"></rect></mask><linearGradient x1="50%" y1="0%" x2="50%" y2="100%" gradientUnits="userSpaceOnUse" id="SvgjsLinearGradient1267"><stop stop-color="#0e2a47" offset="0"></stop><stop stop-color="rgba(255, 255, 255, 1)" offset="1"></stop></linearGradient></defs></svg>