<svg xmlns="http://www.w3.org/2000/svg" version="1.1" xmlns:xlink="http://www.w3.org/1999/xlink" xmlns:svgjs="http://svgjs.com/svgjs" width="1440" height="560" preserveAspectRatio="none" viewBox="0 0 1440 560"><g mask="url(&quot;#SvgjsMask1006&quot;)" fill="none"><rect width="1440" height="560" x="0" y="0" fill="url(#SvgjsLinearGradient1007)"></rect><path d="M-65.08 404.34L-65.08 404.34" stroke="rgba(255, 255, 255, 0)" stroke-width="1.5"></path><path d="M-65.08 404.34L-53.75 528.41" stroke="rgba(255, 255, 255, 0)" stroke-width="1.5"></path><path d="M-65.08 404.34L46.18 506.5" stroke="rgba(255, 255, 255, 0)" stroke-width="1.5"></path><path d="M-65.08 404.34L88.13 381.34" stroke="rgba(255, 255, 255, 0)" stroke-width="1.5"></path><path d="M-53.75 528.41L-53.75 528.41" stroke="rgba(255, 255, 255, 0)" stroke-width="1.5"></path><path d="M-53.75 528.41L46.18 506.5" stroke="rgba(255, 255, 255, 0)" stroke-width="1.5"></path><path d="M-61.78 680.03L-61.78 680.03" stroke="rgba(255, 255, 255, 0)" stroke-width="1.5"></path><path d="M-61.78 680.03L80.07 708.59" stroke="rgba(255, 255, 255, 0)" stroke-width="1.5"></path><path d="M-61.78 680.03L-53.75 528.41" stroke="rgba(255, 255, 255, 0)" stroke-width="1.5"></path><path d="M-61.78 680.03L46.18 506.5" stroke="rgba(255, 255, 255, 0)" stroke-width="1.5"></path><path d="M-61.78 680.03L188.99 709.73" stroke="rgba(255, 255, 255, 0)" stroke-width="1.5"></path><path d="M-61.78 680.03L-65.08 404.34" stroke="rgba(255, 255, 255, 0)" stroke-width="1.5"></path><path d="M88.13 381.34L88.13 381.34" stroke="rgba(255, 255, 255, 0)" stroke-width="1.5"></path><path d="M88.13 381.34L46.18 506.5" stroke="rgba(255, 255, 255, 0)" stroke-width="1.5"></path><path d="M88.13 381.34L220.69 381.28" stroke="rgba(255, 255, 255, 0)" stroke-width="1.5"></path><path d="M88.13 381.34L-53.75 528.41" stroke="rgba(255, 255, 255, 0)" stroke-width="1.5"></path><path d="M46.18 506.5L46.18 506.5" stroke="rgba(255, 255, 255, 0)" stroke-width="1.5"></path><path d="M80.07 708.59L80.07 708.59" stroke="rgba(255, 255, 255, 0)" stroke-width="1.5"></path><path d="M80.07 708.59L188.99 709.73" stroke="rgba(255, 255, 255, 0)" stroke-width="1.5"></path><path d="M80.07 708.59L46.18 506.5" stroke="rgba(255, 255, 255, 0)" stroke-width="1.5"></path><path d="M220.69 381.28L220.69 381.28" stroke="rgba(255, 255, 255, 0)" stroke-width="1.5"></path><path d="M220.69 381.28L394.49 379.55" stroke="rgba(255, 255, 255, 0)" stroke-width="1.5"></path><path d="M220.69 381.28L341.4 554.15" stroke="rgba(255, 255, 255, 0)" stroke-width="1.5"></path><path d="M220.69 381.28L46.18 506.5" stroke="rgba(255, 255, 255, 0)" stroke-width="1.5"></path><path d="M188.99 709.73L188.99 709.73" stroke="rgba(255, 255, 255, 0)" stroke-width="1.5"></path><path d="M188.99 709.73L376.12 643.78" stroke="rgba(255, 255, 255, 0)" stroke-width="1.5"></path><path d="M188.99 709.73L341.4 554.15" stroke="rgba(255, 255, 255, 0)" stroke-width="1.5"></path><path d="M188.99 709.73L46.18 506.5" stroke="rgba(255, 255, 255, 0)" stroke-width="1.5"></path><path d="M188.99 709.73L-53.75 528.41" stroke="rgba(255, 255, 255, 0)" stroke-width="1.5"></path><path d="M394.49 379.55L394.49 379.55" stroke="rgba(255, 255, 255, 0)" stroke-width="1.5"></path><path d="M394.49 379.55L512.55 355.49" stroke="rgba(255, 255, 255, 0)" stroke-width="1.5"></path><path d="M394.49 379.55L493.11 512.31" stroke="rgba(255, 255, 255, 0)" stroke-width="1.5"></path><path d="M394.49 379.55L341.4 554.15" stroke="rgba(255, 255, 255, 0)" stroke-width="1.5"></path><path d="M394.49 379.55L376.12 643.78" stroke="rgba(255, 255, 255, 0)" stroke-width="1.5"></path><path d="M394.49 379.55L88.13 381.34" stroke="rgba(255, 255, 255, 0)" stroke-width="1.5"></path><path d="M341.4 554.15L341.4 554.15" stroke="rgba(255, 255, 255, 0)" stroke-width="1.5"></path><path d="M341.4 554.15L376.12 643.78" stroke="rgba(255, 255, 255, 0)" stroke-width="1.5"></path><path d="M341.4 554.15L493.11 512.31" stroke="rgba(255, 255, 255, 0)" stroke-width="1.5"></path><path d="M376.12 643.78L376.12 643.78" stroke="rgba(255, 255, 255, 0)" stroke-width="1.5"></path><path d="M376.12 643.78L514.45 707.64" stroke="rgba(255, 255, 255, 0)" stroke-width="1.5"></path><path d="M376.12 643.78L493.11 512.31" stroke="rgba(255, 255, 255, 0)" stroke-width="1.5"></path><path d="M512.55 355.49L512.55 355.49" stroke="rgba(255, 255, 255, 0)" stroke-width="1.5"></path><path d="M512.55 355.49L493.11 512.31" stroke="rgba(255, 255, 255, 0)" stroke-width="1.5"></path><path d="M512.55 355.49L680.62 517.73" stroke="rgba(255, 255, 255, 0)" stroke-width="1.5"></path><path d="M512.55 355.49L341.4 554.15" stroke="rgba(255, 255, 255, 0)" stroke-width="1.5"></path><path d="M512.55 355.49L792.01 337.91" stroke="rgba(255, 255, 255, 0)" stroke-width="1.5"></path><path d="M493.11 512.31L493.11 512.31" stroke="rgba(255, 255, 255, 0)" stroke-width="1.5"></path><path d="M514.45 707.64L514.45 707.64" stroke="rgba(255, 255, 255, 0)" stroke-width="1.5"></path><path d="M514.45 707.64L696.57 649.82" stroke="rgba(255, 255, 255, 0)" stroke-width="1.5"></path><path d="M680.62 517.73L680.62 517.73" stroke="rgba(255, 255, 255, 0)" stroke-width="1.5"></path><path d="M680.62 517.73L794.75 547.99" stroke="rgba(255, 255, 255, 0)" stroke-width="1.5"></path><path d="M680.62 517.73L696.57 649.82" stroke="rgba(255, 255, 255, 0)" stroke-width="1.5"></path><path d="M680.62 517.73L493.11 512.31" stroke="rgba(255, 255, 255, 0)" stroke-width="1.5"></path><path d="M680.62 517.73L827.48 660.14" stroke="rgba(255, 255, 255, 0)" stroke-width="1.5"></path><path d="M680.62 517.73L792.01 337.91" stroke="rgba(255, 255, 255, 0)" stroke-width="1.5"></path><path d="M696.57 649.82L696.57 649.82" stroke="rgba(255, 255, 255, 0)" stroke-width="1.5"></path><path d="M696.57 649.82L827.48 660.14" stroke="rgba(255, 255, 255, 0)" stroke-width="1.5"></path><path d="M696.57 649.82L794.75 547.99" stroke="rgba(255, 255, 255, 0)" stroke-width="1.5"></path><path d="M858.04 204.62L858.04 204.62" stroke="rgba(255, 255, 255, 0)" stroke-width="1.5"></path><path d="M858.04 204.62L792.01 337.91" stroke="rgba(255, 255, 255, 0)" stroke-width="1.5"></path><path d="M858.04 204.62L944.68 40.51" stroke="rgba(255, 255, 255, 0)" stroke-width="1.5"></path><path d="M858.04 204.62L992.58 373.66" stroke="rgba(255, 255, 255, 0)" stroke-width="1.5"></path><path d="M858.04 204.62L1134.67 238.98" stroke="rgba(255, 255, 255, 0)" stroke-width="1.5"></path><path d="M858.04 204.62L1120.25 61.23" stroke="rgba(255, 255, 255, 0)" stroke-width="1.5"></path><path d="M858.04 204.62L995.83 -78.78" stroke="rgba(255, 255, 255, 0)" stroke-width="1.5"></path><path d="M792.01 337.91L792.01 337.91" stroke="rgba(255, 255, 255, 0)" stroke-width="1.5"></path><path d="M792.01 337.91L992.58 373.66" stroke="rgba(255, 255, 255, 0)" stroke-width="1.5"></path><path d="M792.01 337.91L794.75 547.99" stroke="rgba(255, 255, 255, 0)" stroke-width="1.5"></path><path d="M792.01 337.91L948.03 517.04" stroke="rgba(255, 255, 255, 0)" stroke-width="1.5"></path><path d="M794.75 547.99L794.75 547.99" stroke="rgba(255, 255, 255, 0)" stroke-width="1.5"></path><path d="M794.75 547.99L827.48 660.14" stroke="rgba(255, 255, 255, 0)" stroke-width="1.5"></path><path d="M827.48 660.14L827.48 660.14" stroke="rgba(255, 255, 255, 0)" stroke-width="1.5"></path><path d="M827.48 660.14L952.04 692.69" stroke="rgba(255, 255, 255, 0)" stroke-width="1.5"></path><path d="M827.48 660.14L948.03 517.04" stroke="rgba(255, 255, 255, 0)" stroke-width="1.5"></path><path d="M995.83 -78.78L995.83 -78.78" stroke="rgba(255, 255, 255, 0)" stroke-width="1.5"></path><path d="M995.83 -78.78L1094.18 -83.2" stroke="rgba(255, 255, 255, 0)" stroke-width="1.5"></path><path d="M995.83 -78.78L944.68 40.51" stroke="rgba(255, 255, 255, 0)" stroke-width="1.5"></path><path d="M995.83 -78.78L1120.25 61.23" stroke="rgba(255, 255, 255, 0)" stroke-width="1.5"></path><path d="M995.83 -78.78L1281.6 -70.92" stroke="rgba(255, 255, 255, 0)" stroke-width="1.5"></path><path d="M995.83 -78.78L1237.6 101.49" stroke="rgba(255, 255, 255, 0)" stroke-width="1.5"></path><path d="M944.68 40.51L944.68 40.51" stroke="rgba(255, 255, 255, 0)" stroke-width="1.5"></path><path d="M944.68 40.51L1120.25 61.23" stroke="rgba(255, 255, 255, 0)" stroke-width="1.5"></path><path d="M944.68 40.51L1094.18 -83.2" stroke="rgba(255, 255, 255, 0)" stroke-width="1.5"></path><path d="M944.68 40.51L1134.67 238.98" stroke="rgba(255, 255, 255, 0)" stroke-width="1.5"></path><path d="M992.58 373.66L992.58 373.66" stroke="rgba(255, 255, 255, 0)" stroke-width="1.5"></path><path d="M992.58 373.66L948.03 517.04" stroke="rgba(255, 255, 255, 0)" stroke-width="1.5"></path><path d="M992.58 373.66L1134.67 238.98" stroke="rgba(255, 255, 255, 0)" stroke-width="1.5"></path><path d="M992.58 373.66L1109.72 533.52" stroke="rgba(255, 255, 255, 0)" stroke-width="1.5"></path><path d="M992.58 373.66L794.75 547.99" stroke="rgba(255, 255, 255, 0)" stroke-width="1.5"></path><path d="M948.03 517.04L948.03 517.04" stroke="rgba(255, 255, 255, 0)" stroke-width="1.5"></path><path d="M948.03 517.04L794.75 547.99" stroke="rgba(255, 255, 255, 0)" stroke-width="1.5"></path><path d="M948.03 517.04L1109.72 533.52" stroke="rgba(255, 255, 255, 0)" stroke-width="1.5"></path><path d="M948.03 517.04L952.04 692.69" stroke="rgba(255, 255, 255, 0)" stroke-width="1.5"></path><path d="M952.04 692.69L952.04 692.69" stroke="rgba(255, 255, 255, 0)" stroke-width="1.5"></path><path d="M952.04 692.69L1095.48 682.69" stroke="rgba(255, 255, 255, 0)" stroke-width="1.5"></path><path d="M952.04 692.69L794.75 547.99" stroke="rgba(255, 255, 255, 0)" stroke-width="1.5"></path><path d="M952.04 692.69L1109.72 533.52" stroke="rgba(255, 255, 255, 0)" stroke-width="1.5"></path><path d="M952.04 692.69L696.57 649.82" stroke="rgba(255, 255, 255, 0)" stroke-width="1.5"></path><path d="M1094.18 -83.2L1094.18 -83.2" stroke="rgba(255, 255, 255, 0)" stroke-width="1.5"></path><path d="M1094.18 -83.2L1120.25 61.23" stroke="rgba(255, 255, 255, 0)" stroke-width="1.5"></path><path d="M1094.18 -83.2L1281.6 -70.92" stroke="rgba(255, 255, 255, 0)" stroke-width="1.5"></path><path d="M1120.25 61.23L1120.25 61.23" stroke="rgba(255, 255, 255, 0)" stroke-width="1.5"></path><path d="M1120.25 61.23L1237.6 101.49" stroke="rgba(255, 255, 255, 0)" stroke-width="1.5"></path><path d="M1120.25 61.23L1134.67 238.98" stroke="rgba(255, 255, 255, 0)" stroke-width="1.5"></path><path d="M1120.25 61.23L1253.14 215.11" stroke="rgba(255, 255, 255, 0)" stroke-width="1.5"></path><path d="M1134.67 238.98L1134.67 238.98" stroke="rgba(255, 255, 255, 0)" stroke-width="1.5"></path><path d="M1134.67 238.98L1253.14 215.11" stroke="rgba(255, 255, 255, 0)" stroke-width="1.5"></path><path d="M1134.67 238.98L1264.4 340.27" stroke="rgba(255, 255, 255, 0)" stroke-width="1.5"></path><path d="M1134.67 238.98L1237.6 101.49" stroke="rgba(255, 255, 255, 0)" stroke-width="1.5"></path><path d="M1109.72 533.52L1109.72 533.52" stroke="rgba(255, 255, 255, 0)" stroke-width="1.5"></path><path d="M1109.72 533.52L1095.48 682.69" stroke="rgba(255, 255, 255, 0)" stroke-width="1.5"></path><path d="M1109.72 533.52L1304.96 527" stroke="rgba(255, 255, 255, 0)" stroke-width="1.5"></path><path d="M1095.48 682.69L1095.48 682.69" stroke="rgba(255, 255, 255, 0)" stroke-width="1.5"></path><path d="M1095.48 682.69L1297.2 659.48" stroke="rgba(255, 255, 255, 0)" stroke-width="1.5"></path><path d="M1095.48 682.69L948.03 517.04" stroke="rgba(255, 255, 255, 0)" stroke-width="1.5"></path><path d="M1095.48 682.69L1304.96 527" stroke="rgba(255, 255, 255, 0)" stroke-width="1.5"></path><path d="M1095.48 682.69L827.48 660.14" stroke="rgba(255, 255, 255, 0)" stroke-width="1.5"></path><path d="M1281.6 -70.92L1281.6 -70.92" stroke="rgba(255, 255, 255, 0)" stroke-width="1.5"></path><path d="M1281.6 -70.92L1456.22 -79.9" stroke="rgba(255, 255, 255, 0)" stroke-width="1.5"></path><path d="M1281.6 -70.92L1237.6 101.49" stroke="rgba(255, 255, 255, 0)" stroke-width="1.5"></path><path d="M1237.6 101.49L1237.6 101.49" stroke="rgba(255, 255, 255, 0)" stroke-width="1.5"></path><path d="M1237.6 101.49L1253.14 215.11" stroke="rgba(255, 255, 255, 0)" stroke-width="1.5"></path><path d="M1237.6 101.49L1411.72 229.85" stroke="rgba(255, 255, 255, 0)" stroke-width="1.5"></path><path d="M1253.14 215.11L1253.14 215.11" stroke="rgba(255, 255, 255, 0)" stroke-width="1.5"></path><path d="M1264.4 340.27L1264.4 340.27" stroke="rgba(255, 255, 255, 0)" stroke-width="1.5"></path><path d="M1264.4 340.27L1253.14 215.11" stroke="rgba(255, 255, 255, 0)" stroke-width="1.5"></path><path d="M1264.4 340.27L1411.72 229.85" stroke="rgba(255, 255, 255, 0)" stroke-width="1.5"></path><path d="M1304.96 527L1304.96 527" stroke="rgba(255, 255, 255, 0)" stroke-width="1.5"></path><path d="M1304.96 527L1297.2 659.48" stroke="rgba(255, 255, 255, 0)" stroke-width="1.5"></path><path d="M1304.96 527L1445.29 495.22" stroke="rgba(255, 255, 255, 0)" stroke-width="1.5"></path><path d="M1297.2 659.48L1297.2 659.48" stroke="rgba(255, 255, 255, 0)" stroke-width="1.5"></path><path d="M1297.2 659.48L1459.88 656.78" stroke="rgba(255, 255, 255, 0)" stroke-width="1.5"></path><path d="M1456.22 -79.9L1456.22 -79.9" stroke="rgba(255, 255, 255, 0)" stroke-width="1.5"></path><path d="M1456.22 -79.9L1547.25 -98.96" stroke="rgba(255, 255, 255, 0)" stroke-width="1.5"></path><path d="M1456.22 -79.9L1597.89 81.49" stroke="rgba(255, 255, 255, 0)" stroke-width="1.5"></path><path d="M1456.22 -79.9L1237.6 101.49" stroke="rgba(255, 255, 255, 0)" stroke-width="1.5"></path><path d="M1456.22 -79.9L1574.97 193.87" stroke="rgba(255, 255, 255, 0)" stroke-width="1.5"></path><path d="M1456.22 -79.9L1411.72 229.85" stroke="rgba(255, 255, 255, 0)" stroke-width="1.5"></path><path d="M1411.72 229.85L1411.72 229.85" stroke="rgba(255, 255, 255, 0)" stroke-width="1.5"></path><path d="M1411.72 229.85L1253.14 215.11" stroke="rgba(255, 255, 255, 0)" stroke-width="1.5"></path><path d="M1411.72 229.85L1574.97 193.87" stroke="rgba(255, 255, 255, 0)" stroke-width="1.5"></path><path d="M1411.72 229.85L1457.27 404.78" stroke="rgba(255, 255, 255, 0)" stroke-width="1.5"></path><path d="M1457.27 404.78L1457.27 404.78" stroke="rgba(255, 255, 255, 0)" stroke-width="1.5"></path><path d="M1457.27 404.78L1445.29 495.22" stroke="rgba(255, 255, 255, 0)" stroke-width="1.5"></path><path d="M1445.29 495.22L1445.29 495.22" stroke="rgba(255, 255, 255, 0)" stroke-width="1.5"></path><path d="M1445.29 495.22L1546.03 519.89" stroke="rgba(255, 255, 255, 0)" stroke-width="1.5"></path><path d="M1445.29 495.22L1459.88 656.78" stroke="rgba(255, 255, 255, 0)" stroke-width="1.5"></path><path d="M1445.29 495.22L1561.4 360.52" stroke="rgba(255, 255, 255, 0)" stroke-width="1.5"></path><path d="M1445.29 495.22L1297.2 659.48" stroke="rgba(255, 255, 255, 0)" stroke-width="1.5"></path><path d="M1459.88 656.78L1459.88 656.78" stroke="rgba(255, 255, 255, 0)" stroke-width="1.5"></path><path d="M1459.88 656.78L1539.06 697.15" stroke="rgba(255, 255, 255, 0)" stroke-width="1.5"></path><path d="M1459.88 656.78L1546.03 519.89" stroke="rgba(255, 255, 255, 0)" stroke-width="1.5"></path><path d="M1459.88 656.78L1304.96 527" stroke="rgba(255, 255, 255, 0)" stroke-width="1.5"></path><path d="M1459.88 656.78L1457.27 404.78" stroke="rgba(255, 255, 255, 0)" stroke-width="1.5"></path><path d="M1547.25 -98.96L1547.25 -98.96" stroke="rgba(255, 255, 255, 0)" stroke-width="1.5"></path><path d="M1547.25 -98.96L1597.89 81.49" stroke="rgba(255, 255, 255, 0)" stroke-width="1.5"></path><path d="M1547.25 -98.96L1281.6 -70.92" stroke="rgba(255, 255, 255, 0)" stroke-width="1.5"></path><path d="M1547.25 -98.96L1574.97 193.87" stroke="rgba(255, 255, 255, 0)" stroke-width="1.5"></path><path d="M1597.89 81.49L1597.89 81.49" stroke="rgba(255, 255, 255, 0)" stroke-width="1.5"></path><path d="M1597.89 81.49L1574.97 193.87" stroke="rgba(255, 255, 255, 0)" stroke-width="1.5"></path><path d="M1574.97 193.87L1574.97 193.87" stroke="rgba(255, 255, 255, 0)" stroke-width="1.5"></path><path d="M1574.97 193.87L1561.4 360.52" stroke="rgba(255, 255, 255, 0)" stroke-width="1.5"></path><path d="M1574.97 193.87L1457.27 404.78" stroke="rgba(255, 255, 255, 0)" stroke-width="1.5"></path><path d="M1561.4 360.52L1561.4 360.52" stroke="rgba(255, 255, 255, 0)" stroke-width="1.5"></path><path d="M1561.4 360.52L1457.27 404.78" stroke="rgba(255, 255, 255, 0)" stroke-width="1.5"></path><path d="M1561.4 360.52L1546.03 519.89" stroke="rgba(255, 255, 255, 0)" stroke-width="1.5"></path><path d="M1561.4 360.52L1411.72 229.85" stroke="rgba(255, 255, 255, 0)" stroke-width="1.5"></path><path d="M1561.4 360.52L1597.89 81.49" stroke="rgba(255, 255, 255, 0)" stroke-width="1.5"></path><path d="M1546.03 519.89L1546.03 519.89" stroke="rgba(255, 255, 255, 0)" stroke-width="1.5"></path><path d="M1546.03 519.89L1457.27 404.78" stroke="rgba(255, 255, 255, 0)" stroke-width="1.5"></path><path d="M1546.03 519.89L1539.06 697.15" stroke="rgba(255, 255, 255, 0)" stroke-width="1.5"></path><path d="M1539.06 697.15L1539.06 697.15" stroke="rgba(255, 255, 255, 0)" stroke-width="1.5"></path><circle r="5" cx="-65.08" cy="404.34" fill="rgba(255, 255, 255, 0)"></circle><circle r="5" cx="-53.75" cy="528.41" fill="rgba(255, 255, 255, 0)"></circle><circle r="5" cx="-61.78" cy="680.03" fill="rgba(255, 255, 255, 0)"></circle><circle r="5" cx="88.13" cy="381.34" fill="rgba(255, 255, 255, 0)"></circle><circle r="5" cx="46.18" cy="506.5" fill="rgba(255, 255, 255, 0)"></circle><circle r="5" cx="80.07" cy="708.59" fill="rgba(255, 255, 255, 0)"></circle><circle r="5" cx="220.69" cy="381.28" fill="rgba(255, 255, 255, 0)"></circle><circle r="5" cx="188.99" cy="709.73" fill="rgba(255, 255, 255, 0)"></circle><circle r="5" cx="394.49" cy="379.55" fill="rgba(255, 255, 255, 0)"></circle><circle r="5" cx="341.4" cy="554.15" fill="rgba(255, 255, 255, 0)"></circle><circle r="5" cx="376.12" cy="643.78" fill="rgba(255, 255, 255, 0)"></circle><circle r="5" cx="512.55" cy="355.49" fill="rgba(255, 255, 255, 0)"></circle><circle r="5" cx="493.11" cy="512.31" fill="rgba(255, 255, 255, 0)"></circle><circle r="5" cx="514.45" cy="707.64" fill="rgba(255, 255, 255, 0)"></circle><circle r="5" cx="680.62" cy="517.73" fill="rgba(255, 255, 255, 0)"></circle><circle r="5" cx="696.57" cy="649.82" fill="rgba(255, 255, 255, 0)"></circle><circle r="5" cx="858.04" cy="204.62" fill="rgba(255, 255, 255, 0)"></circle><circle r="5" cx="792.01" cy="337.91" fill="rgba(255, 255, 255, 0)"></circle><circle r="5" cx="794.75" cy="547.99" fill="rgba(255, 255, 255, 0)"></circle><circle r="5" cx="827.48" cy="660.14" fill="rgba(255, 255, 255, 0)"></circle><circle r="5" cx="995.83" cy="-78.78" fill="rgba(255, 255, 255, 0)"></circle><circle r="5" cx="944.68" cy="40.51" fill="rgba(255, 255, 255, 0)"></circle><circle r="5" cx="992.58" cy="373.66" fill="rgba(255, 255, 255, 0)"></circle><circle r="5" cx="948.03" cy="517.04" fill="rgba(255, 255, 255, 0)"></circle><circle r="5" cx="952.04" cy="692.69" fill="rgba(255, 255, 255, 0)"></circle><circle r="5" cx="1094.18" cy="-83.2" fill="rgba(255, 255, 255, 0)"></circle><circle r="5" cx="1120.25" cy="61.23" fill="rgba(255, 255, 255, 0)"></circle><circle r="5" cx="1134.67" cy="238.98" fill="rgba(255, 255, 255, 0)"></circle><circle r="5" cx="1109.72" cy="533.52" fill="rgba(255, 255, 255, 0)"></circle><circle r="5" cx="1095.48" cy="682.69" fill="rgba(255, 255, 255, 0)"></circle><circle r="5" cx="1281.6" cy="-70.92" fill="rgba(255, 255, 255, 0)"></circle><circle r="5" cx="1237.6" cy="101.49" fill="rgba(255, 255, 255, 0)"></circle><circle r="5" cx="1253.14" cy="215.11" fill="rgba(255, 255, 255, 0)"></circle><circle r="5" cx="1264.4" cy="340.27" fill="rgba(255, 255, 255, 0)"></circle><circle r="5" cx="1304.96" cy="527" fill="rgba(255, 255, 255, 0)"></circle><circle r="5" cx="1297.2" cy="659.48" fill="rgba(255, 255, 255, 0)"></circle><circle r="5" cx="1456.22" cy="-79.9" fill="rgba(255, 255, 255, 0)"></circle><circle r="5" cx="1411.72" cy="229.85" fill="rgba(255, 255, 255, 0)"></circle><circle r="5" cx="1457.27" cy="404.78" fill="rgba(255, 255, 255, 0)"></circle><circle r="5" cx="1445.29" cy="495.22" fill="rgba(255, 255, 255, 0)"></circle><circle r="5" cx="1459.88" cy="656.78" fill="rgba(255, 255, 255, 0)"></circle><circle r="5" cx="1547.25" cy="-98.96" fill="rgba(255, 255, 255, 0)"></circle><circle r="5" cx="1597.89" cy="81.49" fill="rgba(255, 255, 255, 0)"></circle><circle r="5" cx="1574.97" cy="193.87" fill="rgba(255, 255, 255, 0)"></circle><circle r="5" cx="1561.4" cy="360.52" fill="rgba(255, 255, 255, 0)"></circle><circle r="5" cx="1546.03" cy="519.89" fill="rgba(255, 255, 255, 0)"></circle><circle r="5" cx="1539.06" cy="697.15" fill="rgba(255, 255, 255, 0)"></circle><path d="M-110.04 685.37L-110.04 685.37" stroke="hsla(36.60000000000002, 84.9%, 64%, 0.52)" stroke-width="1.5"></path><path d="M-110.04 685.37L-50.22 507.67" stroke="hsla(36.60000000000002, 84.9%, 64%, 0.52)" stroke-width="1.5"></path><path d="M-110.04 685.37L107.37 658.32" stroke="hsla(36.60000000000002, 84.9%, 64%, 0.52)" stroke-width="1.5"></path><path d="M-110.04 685.37L87.15 553.22" stroke="hsla(36.60000000000002, 84.9%, 64%, 0.52)" stroke-width="1.5"></path><path d="M-110.04 685.37L227.71 541.81" stroke="hsla(36.60000000000002, 84.9%, 64%, 0.52)" stroke-width="1.5"></path><path d="M338.15 526.08L338.15 526.08" stroke="hsla(36.60000000000002, 84.9%, 64%, 0.52)" stroke-width="1.5"></path><path d="M338.15 526.08L227.71 541.81" stroke="hsla(36.60000000000002, 84.9%, 64%, 0.52)" stroke-width="1.5"></path><path d="M338.15 526.08L256.89 642.92" stroke="hsla(36.60000000000002, 84.9%, 64%, 0.52)" stroke-width="1.5"></path><path d="M338.15 526.08L406.66 658.83" stroke="hsla(36.60000000000002, 84.9%, 64%, 0.52)" stroke-width="1.5"></path><path d="M338.15 526.08L529.17 488.79" stroke="hsla(36.60000000000002, 84.9%, 64%, 0.52)" stroke-width="1.5"></path><path d="M529.17 488.79L529.17 488.79" stroke="hsla(36.60000000000002, 84.9%, 64%, 0.52)" stroke-width="1.5"></path><path d="M529.17 488.79L518.37 641.75" stroke="hsla(36.60000000000002, 84.9%, 64%, 0.52)" stroke-width="1.5"></path><path d="M529.17 488.79L680.96 547.28" stroke="hsla(36.60000000000002, 84.9%, 64%, 0.52)" stroke-width="1.5"></path><path d="M970.71 649.29L970.71 649.29" stroke="hsla(36.60000000000002, 84.9%, 64%, 0.52)" stroke-width="1.5"></path><path d="M970.71 649.29L997.05 546.21" stroke="hsla(36.60000000000002, 84.9%, 64%, 0.52)" stroke-width="1.5"></path><path d="M970.71 649.29L792.71 650.03" stroke="hsla(36.60000000000002, 84.9%, 64%, 0.52)" stroke-width="1.5"></path><path d="M970.71 649.29L1157.64 653.79" stroke="hsla(36.60000000000002, 84.9%, 64%, 0.52)" stroke-width="1.5"></path><path d="M970.71 649.29L1122.53 533.62" stroke="hsla(36.60000000000002, 84.9%, 64%, 0.52)" stroke-width="1.5"></path><path d="M970.71 649.29L817.95 531.3" stroke="hsla(36.60000000000002, 84.9%, 64%, 0.52)" stroke-width="1.5"></path><path d="M1122.35 411.95L1122.35 411.95" stroke="hsla(36.60000000000002, 84.9%, 64%, 0.52)" stroke-width="1.5"></path><path d="M1122.35 411.95L1122.53 533.62" stroke="hsla(36.60000000000002, 84.9%, 64%, 0.52)" stroke-width="1.5"></path><path d="M1122.35 411.95L974.32 394.31" stroke="hsla(36.60000000000002, 84.9%, 64%, 0.52)" stroke-width="1.5"></path><path d="M1122.35 411.95L1283.34 367.98" stroke="hsla(36.60000000000002, 84.9%, 64%, 0.52)" stroke-width="1.5"></path><path d="M1122.35 411.95L997.05 546.21" stroke="hsla(36.60000000000002, 84.9%, 64%, 0.52)" stroke-width="1.5"></path><path d="M1122.35 411.95L1247.69 546.98" stroke="hsla(36.60000000000002, 84.9%, 64%, 0.52)" stroke-width="1.5"></path><path d="M1293.12 54.24L1293.12 54.24" stroke="hsla(36.60000000000002, 84.9%, 64%, 0.52)" stroke-width="1.5"></path><path d="M1293.12 54.24L1279 -62.87" stroke="hsla(36.60000000000002, 84.9%, 64%, 0.52)" stroke-width="1.5"></path><path d="M1293.12 54.24L1412.8 109.35" stroke="hsla(36.60000000000002, 84.9%, 64%, 0.52)" stroke-width="1.5"></path><path d="M1238.95 212.73L1238.95 212.73" stroke="hsla(36.60000000000002, 84.9%, 64%, 0.52)" stroke-width="1.5"></path><path d="M1238.95 212.73L1142.79 216.57" stroke="hsla(36.60000000000002, 84.9%, 64%, 0.52)" stroke-width="1.5"></path><path d="M1238.95 212.73L1283.34 367.98" stroke="hsla(36.60000000000002, 84.9%, 64%, 0.52)" stroke-width="1.5"></path><path d="M1238.95 212.73L1293.12 54.24" stroke="hsla(36.60000000000002, 84.9%, 64%, 0.52)" stroke-width="1.5"></path><path d="M1238.95 212.73L1437.5 222.33" stroke="hsla(36.60000000000002, 84.9%, 64%, 0.52)" stroke-width="1.5"></path><path d="M1238.95 212.73L1412.8 109.35" stroke="hsla(36.60000000000002, 84.9%, 64%, 0.52)" stroke-width="1.5"></path><path d="M1586.87 -59.79L1586.87 -59.79" stroke="hsla(36.60000000000002, 84.9%, 64%, 0.52)" stroke-width="1.5"></path><path d="M1586.87 -59.79L1453.83 -80.24" stroke="hsla(36.60000000000002, 84.9%, 64%, 0.52)" stroke-width="1.5"></path><path d="M1586.87 -59.79L1577.32 91.65" stroke="hsla(36.60000000000002, 84.9%, 64%, 0.52)" stroke-width="1.5"></path><path d="M1586.87 -59.79L1412.8 109.35" stroke="hsla(36.60000000000002, 84.9%, 64%, 0.52)" stroke-width="1.5"></path><path d="M1586.87 -59.79L1609.38 212.4" stroke="hsla(36.60000000000002, 84.9%, 64%, 0.52)" stroke-width="1.5"></path><path d="M1586.87 -59.79L1279 -62.87" stroke="hsla(36.60000000000002, 84.9%, 64%, 0.52)" stroke-width="1.5"></path><path d="M-50.22 507.67L-50.22 507.67" stroke="hsla(36.60000000000002, 84.9%, 64%, 0.52)" stroke-width="1.5"></path><path d="M-50.22 507.67L87.15 553.22" stroke="hsla(36.60000000000002, 84.9%, 64%, 0.52)" stroke-width="1.5"></path><path d="M-50.22 507.67L107.37 658.32" stroke="hsla(36.60000000000002, 84.9%, 64%, 0.52)" stroke-width="1.5"></path><path d="M-50.22 507.67L227.71 541.81" stroke="hsla(36.60000000000002, 84.9%, 64%, 0.52)" stroke-width="1.5"></path><path d="M87.15 553.22L87.15 553.22" stroke="hsla(36.60000000000002, 84.9%, 64%, 0.52)" stroke-width="1.5"></path><path d="M87.15 553.22L107.37 658.32" stroke="hsla(36.60000000000002, 84.9%, 64%, 0.52)" stroke-width="1.5"></path><path d="M87.15 553.22L227.71 541.81" stroke="hsla(36.60000000000002, 84.9%, 64%, 0.52)" stroke-width="1.5"></path><path d="M87.15 553.22L256.89 642.92" stroke="hsla(36.60000000000002, 84.9%, 64%, 0.52)" stroke-width="1.5"></path><path d="M107.37 658.32L107.37 658.32" stroke="hsla(36.60000000000002, 84.9%, 64%, 0.52)" stroke-width="1.5"></path><path d="M107.37 658.32L256.89 642.92" stroke="hsla(36.60000000000002, 84.9%, 64%, 0.52)" stroke-width="1.5"></path><path d="M227.71 541.81L227.71 541.81" stroke="hsla(36.60000000000002, 84.9%, 64%, 0.52)" stroke-width="1.5"></path><path d="M227.71 541.81L256.89 642.92" stroke="hsla(36.60000000000002, 84.9%, 64%, 0.52)" stroke-width="1.5"></path><path d="M227.71 541.81L107.37 658.32" stroke="hsla(36.60000000000002, 84.9%, 64%, 0.52)" stroke-width="1.5"></path><path d="M227.71 541.81L406.66 658.83" stroke="hsla(36.60000000000002, 84.9%, 64%, 0.52)" stroke-width="1.5"></path><path d="M256.89 642.92L256.89 642.92" stroke="hsla(36.60000000000002, 84.9%, 64%, 0.52)" stroke-width="1.5"></path><path d="M256.89 642.92L406.66 658.83" stroke="hsla(36.60000000000002, 84.9%, 64%, 0.52)" stroke-width="1.5"></path><path d="M256.89 642.92L518.37 641.75" stroke="hsla(36.60000000000002, 84.9%, 64%, 0.52)" stroke-width="1.5"></path><path d="M406.66 658.83L406.66 658.83" stroke="hsla(36.60000000000002, 84.9%, 64%, 0.52)" stroke-width="1.5"></path><path d="M406.66 658.83L518.37 641.75" stroke="hsla(36.60000000000002, 84.9%, 64%, 0.52)" stroke-width="1.5"></path><path d="M406.66 658.83L529.17 488.79" stroke="hsla(36.60000000000002, 84.9%, 64%, 0.52)" stroke-width="1.5"></path><path d="M518.37 641.75L518.37 641.75" stroke="hsla(36.60000000000002, 84.9%, 64%, 0.52)" stroke-width="1.5"></path><path d="M518.37 641.75L680.79 677.01" stroke="hsla(36.60000000000002, 84.9%, 64%, 0.52)" stroke-width="1.5"></path><path d="M518.37 641.75L680.96 547.28" stroke="hsla(36.60000000000002, 84.9%, 64%, 0.52)" stroke-width="1.5"></path><path d="M518.37 641.75L338.15 526.08" stroke="hsla(36.60000000000002, 84.9%, 64%, 0.52)" stroke-width="1.5"></path><path d="M702.8 380.57L702.8 380.57" stroke="hsla(36.60000000000002, 84.9%, 64%, 0.52)" stroke-width="1.5"></path><path d="M702.8 380.57L825.27 355.52" stroke="hsla(36.60000000000002, 84.9%, 64%, 0.52)" stroke-width="1.5"></path><path d="M702.8 380.57L680.96 547.28" stroke="hsla(36.60000000000002, 84.9%, 64%, 0.52)" stroke-width="1.5"></path><path d="M702.8 380.57L817.95 531.3" stroke="hsla(36.60000000000002, 84.9%, 64%, 0.52)" stroke-width="1.5"></path><path d="M702.8 380.57L529.17 488.79" stroke="hsla(36.60000000000002, 84.9%, 64%, 0.52)" stroke-width="1.5"></path><path d="M702.8 380.57L974.32 394.31" stroke="hsla(36.60000000000002, 84.9%, 64%, 0.52)" stroke-width="1.5"></path><path d="M702.8 380.57L792.71 650.03" stroke="hsla(36.60000000000002, 84.9%, 64%, 0.52)" stroke-width="1.5"></path><path d="M680.96 547.28L680.96 547.28" stroke="hsla(36.60000000000002, 84.9%, 64%, 0.52)" stroke-width="1.5"></path><path d="M680.96 547.28L680.79 677.01" stroke="hsla(36.60000000000002, 84.9%, 64%, 0.52)" stroke-width="1.5"></path><path d="M680.96 547.28L817.95 531.3" stroke="hsla(36.60000000000002, 84.9%, 64%, 0.52)" stroke-width="1.5"></path><path d="M680.96 547.28L792.71 650.03" stroke="hsla(36.60000000000002, 84.9%, 64%, 0.52)" stroke-width="1.5"></path><path d="M680.79 677.01L680.79 677.01" stroke="hsla(36.60000000000002, 84.9%, 64%, 0.52)" stroke-width="1.5"></path><path d="M680.79 677.01L792.71 650.03" stroke="hsla(36.60000000000002, 84.9%, 64%, 0.52)" stroke-width="1.5"></path><path d="M825.27 355.52L825.27 355.52" stroke="hsla(36.60000000000002, 84.9%, 64%, 0.52)" stroke-width="1.5"></path><path d="M825.27 355.52L974.32 394.31" stroke="hsla(36.60000000000002, 84.9%, 64%, 0.52)" stroke-width="1.5"></path><path d="M825.27 355.52L817.95 531.3" stroke="hsla(36.60000000000002, 84.9%, 64%, 0.52)" stroke-width="1.5"></path><path d="M825.27 355.52L680.96 547.28" stroke="hsla(36.60000000000002, 84.9%, 64%, 0.52)" stroke-width="1.5"></path><path d="M825.27 355.52L997.05 546.21" stroke="hsla(36.60000000000002, 84.9%, 64%, 0.52)" stroke-width="1.5"></path><path d="M825.27 355.52L792.71 650.03" stroke="hsla(36.60000000000002, 84.9%, 64%, 0.52)" stroke-width="1.5"></path><path d="M817.95 531.3L817.95 531.3" stroke="hsla(36.60000000000002, 84.9%, 64%, 0.52)" stroke-width="1.5"></path><path d="M817.95 531.3L792.71 650.03" stroke="hsla(36.60000000000002, 84.9%, 64%, 0.52)" stroke-width="1.5"></path><path d="M792.71 650.03L792.71 650.03" stroke="hsla(36.60000000000002, 84.9%, 64%, 0.52)" stroke-width="1.5"></path><path d="M974.32 394.31L974.32 394.31" stroke="hsla(36.60000000000002, 84.9%, 64%, 0.52)" stroke-width="1.5"></path><path d="M974.32 394.31L997.05 546.21" stroke="hsla(36.60000000000002, 84.9%, 64%, 0.52)" stroke-width="1.5"></path><path d="M997.05 546.21L997.05 546.21" stroke="hsla(36.60000000000002, 84.9%, 64%, 0.52)" stroke-width="1.5"></path><path d="M997.05 546.21L1122.53 533.62" stroke="hsla(36.60000000000002, 84.9%, 64%, 0.52)" stroke-width="1.5"></path><path d="M997.05 546.21L817.95 531.3" stroke="hsla(36.60000000000002, 84.9%, 64%, 0.52)" stroke-width="1.5"></path><path d="M1142.79 216.57L1142.79 216.57" stroke="hsla(36.60000000000002, 84.9%, 64%, 0.52)" stroke-width="1.5"></path><path d="M1142.79 216.57L1122.35 411.95" stroke="hsla(36.60000000000002, 84.9%, 64%, 0.52)" stroke-width="1.5"></path><path d="M1142.79 216.57L1283.34 367.98" stroke="hsla(36.60000000000002, 84.9%, 64%, 0.52)" stroke-width="1.5"></path><path d="M1142.79 216.57L1293.12 54.24" stroke="hsla(36.60000000000002, 84.9%, 64%, 0.52)" stroke-width="1.5"></path><path d="M1142.79 216.57L974.32 394.31" stroke="hsla(36.60000000000002, 84.9%, 64%, 0.52)" stroke-width="1.5"></path><path d="M1142.79 216.57L1412.8 109.35" stroke="hsla(36.60000000000002, 84.9%, 64%, 0.52)" stroke-width="1.5"></path><path d="M1122.53 533.62L1122.53 533.62" stroke="hsla(36.60000000000002, 84.9%, 64%, 0.52)" stroke-width="1.5"></path><path d="M1122.53 533.62L1157.64 653.79" stroke="hsla(36.60000000000002, 84.9%, 64%, 0.52)" stroke-width="1.5"></path><path d="M1157.64 653.79L1157.64 653.79" stroke="hsla(36.60000000000002, 84.9%, 64%, 0.52)" stroke-width="1.5"></path><path d="M1157.64 653.79L1239.99 671.96" stroke="hsla(36.60000000000002, 84.9%, 64%, 0.52)" stroke-width="1.5"></path><path d="M1157.64 653.79L1247.69 546.98" stroke="hsla(36.60000000000002, 84.9%, 64%, 0.52)" stroke-width="1.5"></path><path d="M1279 -62.87L1279 -62.87" stroke="hsla(36.60000000000002, 84.9%, 64%, 0.52)" stroke-width="1.5"></path><path d="M1279 -62.87L1453.83 -80.24" stroke="hsla(36.60000000000002, 84.9%, 64%, 0.52)" stroke-width="1.5"></path><path d="M1283.34 367.98L1283.34 367.98" stroke="hsla(36.60000000000002, 84.9%, 64%, 0.52)" stroke-width="1.5"></path><path d="M1283.34 367.98L1421.87 357.84" stroke="hsla(36.60000000000002, 84.9%, 64%, 0.52)" stroke-width="1.5"></path><path d="M1283.34 367.98L1247.69 546.98" stroke="hsla(36.60000000000002, 84.9%, 64%, 0.52)" stroke-width="1.5"></path><path d="M1283.34 367.98L1437.5 222.33" stroke="hsla(36.60000000000002, 84.9%, 64%, 0.52)" stroke-width="1.5"></path><path d="M1247.69 546.98L1247.69 546.98" stroke="hsla(36.60000000000002, 84.9%, 64%, 0.52)" stroke-width="1.5"></path><path d="M1247.69 546.98L1239.99 671.96" stroke="hsla(36.60000000000002, 84.9%, 64%, 0.52)" stroke-width="1.5"></path><path d="M1247.69 546.98L1122.53 533.62" stroke="hsla(36.60000000000002, 84.9%, 64%, 0.52)" stroke-width="1.5"></path><path d="M1247.69 546.98L1427.49 538.41" stroke="hsla(36.60000000000002, 84.9%, 64%, 0.52)" stroke-width="1.5"></path><path d="M1239.99 671.96L1239.99 671.96" stroke="hsla(36.60000000000002, 84.9%, 64%, 0.52)" stroke-width="1.5"></path><path d="M1453.83 -80.24L1453.83 -80.24" stroke="hsla(36.60000000000002, 84.9%, 64%, 0.52)" stroke-width="1.5"></path><path d="M1453.83 -80.24L1412.8 109.35" stroke="hsla(36.60000000000002, 84.9%, 64%, 0.52)" stroke-width="1.5"></path><path d="M1453.83 -80.24L1293.12 54.24" stroke="hsla(36.60000000000002, 84.9%, 64%, 0.52)" stroke-width="1.5"></path><path d="M1412.8 109.35L1412.8 109.35" stroke="hsla(36.60000000000002, 84.9%, 64%, 0.52)" stroke-width="1.5"></path><path d="M1412.8 109.35L1437.5 222.33" stroke="hsla(36.60000000000002, 84.9%, 64%, 0.52)" stroke-width="1.5"></path><path d="M1412.8 109.35L1577.32 91.65" stroke="hsla(36.60000000000002, 84.9%, 64%, 0.52)" stroke-width="1.5"></path><path d="M1437.5 222.33L1437.5 222.33" stroke="hsla(36.60000000000002, 84.9%, 64%, 0.52)" stroke-width="1.5"></path><path d="M1421.87 357.84L1421.87 357.84" stroke="hsla(36.60000000000002, 84.9%, 64%, 0.52)" stroke-width="1.5"></path><path d="M1421.87 357.84L1437.5 222.33" stroke="hsla(36.60000000000002, 84.9%, 64%, 0.52)" stroke-width="1.5"></path><path d="M1421.87 357.84L1427.49 538.41" stroke="hsla(36.60000000000002, 84.9%, 64%, 0.52)" stroke-width="1.5"></path><path d="M1421.87 357.84L1537.69 549.69" stroke="hsla(36.60000000000002, 84.9%, 64%, 0.52)" stroke-width="1.5"></path><path d="M1421.87 357.84L1238.95 212.73" stroke="hsla(36.60000000000002, 84.9%, 64%, 0.52)" stroke-width="1.5"></path><path d="M1421.87 357.84L1609.38 212.4" stroke="hsla(36.60000000000002, 84.9%, 64%, 0.52)" stroke-width="1.5"></path><path d="M1427.49 538.41L1427.49 538.41" stroke="hsla(36.60000000000002, 84.9%, 64%, 0.52)" stroke-width="1.5"></path><path d="M1427.49 538.41L1537.69 549.69" stroke="hsla(36.60000000000002, 84.9%, 64%, 0.52)" stroke-width="1.5"></path><path d="M1427.49 538.41L1580.89 686.7" stroke="hsla(36.60000000000002, 84.9%, 64%, 0.52)" stroke-width="1.5"></path><path d="M1577.32 91.65L1577.32 91.65" stroke="hsla(36.60000000000002, 84.9%, 64%, 0.52)" stroke-width="1.5"></path><path d="M1577.32 91.65L1609.38 212.4" stroke="hsla(36.60000000000002, 84.9%, 64%, 0.52)" stroke-width="1.5"></path><path d="M1609.38 212.4L1609.38 212.4" stroke="hsla(36.60000000000002, 84.9%, 64%, 0.52)" stroke-width="1.5"></path><path d="M1609.38 212.4L1437.5 222.33" stroke="hsla(36.60000000000002, 84.9%, 64%, 0.52)" stroke-width="1.5"></path><path d="M1609.38 212.4L1412.8 109.35" stroke="hsla(36.60000000000002, 84.9%, 64%, 0.52)" stroke-width="1.5"></path><path d="M1537.69 549.69L1537.69 549.69" stroke="hsla(36.60000000000002, 84.9%, 64%, 0.52)" stroke-width="1.5"></path><path d="M1537.69 549.69L1580.89 686.7" stroke="hsla(36.60000000000002, 84.9%, 64%, 0.52)" stroke-width="1.5"></path><path d="M1537.69 549.69L1247.69 546.98" stroke="hsla(36.60000000000002, 84.9%, 64%, 0.52)" stroke-width="1.5"></path><path d="M1580.89 686.7L1580.89 686.7" stroke="hsla(36.60000000000002, 84.9%, 64%, 0.52)" stroke-width="1.5"></path><path d="M1580.89 686.7L1239.99 671.96" stroke="hsla(36.60000000000002, 84.9%, 64%, 0.52)" stroke-width="1.5"></path><circle r="25" cx="-110.04" cy="685.37" fill="url(#SvgjsRadialGradient1008)"></circle><circle r="25" cx="338.15" cy="526.08" fill="url(#SvgjsRadialGradient1008)"></circle><circle r="25" cx="529.17" cy="488.79" fill="url(#SvgjsRadialGradient1008)"></circle><circle r="25" cx="970.71" cy="649.29" fill="url(#SvgjsRadialGradient1008)"></circle><circle r="25" cx="1122.35" cy="411.95" fill="url(#SvgjsRadialGradient1008)"></circle><circle r="25" cx="1293.12" cy="54.24" fill="url(#SvgjsRadialGradient1008)"></circle><circle r="25" cx="1238.95" cy="212.73" fill="url(#SvgjsRadialGradient1008)"></circle><circle r="25" cx="1586.87" cy="-59.79" fill="url(#SvgjsRadialGradient1008)"></circle><circle r="5" cx="-50.22" cy="507.67" fill="rgba(249, 227, 194, 0.76)"></circle><circle r="5" cx="87.15" cy="553.22" fill="rgba(249, 227, 194, 0.76)"></circle><circle r="5" cx="107.37" cy="658.32" fill="rgba(249, 227, 194, 0.76)"></circle><circle r="5" cx="227.71" cy="541.81" fill="rgba(249, 227, 194, 0.76)"></circle><circle r="5" cx="256.89" cy="642.92" fill="rgba(249, 227, 194, 0.76)"></circle><circle r="5" cx="406.66" cy="658.83" fill="rgba(249, 227, 194, 0.76)"></circle><circle r="5" cx="518.37" cy="641.75" fill="rgba(249, 227, 194, 0.76)"></circle><circle r="5" cx="702.8" cy="380.57" fill="rgba(249, 227, 194, 0.76)"></circle><circle r="5" cx="680.96" cy="547.28" fill="rgba(249, 227, 194, 0.76)"></circle><circle r="5" cx="680.79" cy="677.01" fill="rgba(249, 227, 194, 0.76)"></circle><circle r="5" cx="825.27" cy="355.52" fill="rgba(249, 227, 194, 0.76)"></circle><circle r="5" cx="817.95" cy="531.3" fill="rgba(249, 227, 194, 0.76)"></circle><circle r="5" cx="792.71" cy="650.03" fill="rgba(249, 227, 194, 0.76)"></circle><circle r="5" cx="974.32" cy="394.31" fill="rgba(249, 227, 194, 0.76)"></circle><circle r="5" cx="997.05" cy="546.21" fill="rgba(249, 227, 194, 0.76)"></circle><circle r="5" cx="1142.79" cy="216.57" fill="rgba(249, 227, 194, 0.76)"></circle><circle r="5" cx="1122.53" cy="533.62" fill="rgba(249, 227, 194, 0.76)"></circle><circle r="5" cx="1157.64" cy="653.79" fill="rgba(249, 227, 194, 0.76)"></circle><circle r="5" cx="1279" cy="-62.87" fill="rgba(249, 227, 194, 0.76)"></circle><circle r="5" cx="1283.34" cy="367.98" fill="rgba(249, 227, 194, 0.76)"></circle><circle r="5" cx="1247.69" cy="546.98" fill="rgba(249, 227, 194, 0.76)"></circle><circle r="5" cx="1239.99" cy="671.96" fill="rgba(249, 227, 194, 0.76)"></circle><circle r="5" cx="1453.83" cy="-80.24" fill="rgba(249, 227, 194, 0.76)"></circle><circle r="5" cx="1412.8" cy="109.35" fill="rgba(249, 227, 194, 0.76)"></circle><circle r="5" cx="1437.5" cy="222.33" fill="rgba(249, 227, 194, 0.76)"></circle><circle r="5" cx="1421.87" cy="357.84" fill="rgba(249, 227, 194, 0.76)"></circle><circle r="5" cx="1427.49" cy="538.41" fill="rgba(249, 227, 194, 0.76)"></circle><circle r="5" cx="1577.32" cy="91.65" fill="rgba(249, 227, 194, 0.76)"></circle><circle r="5" cx="1609.38" cy="212.4" fill="rgba(249, 227, 194, 0.76)"></circle><circle r="5" cx="1537.69" cy="549.69" fill="rgba(249, 227, 194, 0.76)"></circle><circle r="5" cx="1580.89" cy="686.7" fill="rgba(249, 227, 194, 0.76)"></circle></g><defs><mask id="SvgjsMask1006"><rect width="1440" height="560" fill="#ffffff"></rect></mask><linearGradient x1="50%" y1="0%" x2="50%" y2="100%" gradientUnits="userSpaceOnUse" id="SvgjsLinearGradient1007"><stop stop-color="#0e2a47" offset="0"></stop><stop stop-color="rgba(255, 255, 255, 1)" offset="1"></stop></linearGradient><radialGradient id="SvgjsRadialGradient1008"><stop stop-color="#ffffff" offset="0.1"></stop><stop stop-color="rgba(232, 149, 19, 0.52)" offset="0.2"></stop><stop stop-color="rgba(232, 149, 19, 0)" offset="1"></stop></radialGradient></defs></svg>